{"title":"Divergent.Series.Allegiant.2016.HD-TS.XVID.AC3.HQ.Hive-CM8","uid":13977042,"size":1713697476,"categoryP":"video","categoryS":"movies","magnet":"?xt=urn:btih:8f8d8ec97e89117381d6cd3f117fa16b40babdd4&amp;dn=Divergent.Series.Allegiant.2016.HD-TS.XVID.AC3.HQ.Hive-CM8&amp;tr=udp%3A%2F%2Ftracker.leechers-paradise.org%3A6969&amp;tr=udp%3A%2F%2Fzer0day.ch%3A1337&amp;tr=udp%3A%2F%2Fopen.demonii.com%3A1337&amp;tr=udp%3A%2F%2Ftracker.coppersurfer.tk%3A6969&amp;tr=udp%3A%2F%2Fexodus.desync.com%3A6969","seeders":2,"leechers":5,"uploader":"Supernova","files":4,"time":1458656502,"description":"http://boltimg.com/image/RHkX\r\n\r\nDivergent.Series.Allegiant.2016.HD-TS.XVID.AC3.HQ.Hive-CM8\r\n\r\nThx Hive\r\n\r\nCM8 Doing It Right The First Time \r\n\r\nSources:\r\n\r\nVideo: Russian/Latino HDCAMs thx\r\n\r\nAudio: Sweet Line Big Thx to Cadance\r\n\r\n\r\nNotes:\r\n\r\nGot this great cam, quality was very nice.\r\nDidnt have any flicker, no movements, all bright,nightscenes are good,and no heads in the view\r\nAnother perfect release, best possible Video and best possible Line combined for this blockbuster.\r\nOne good release is the way to go, patience\r\nthx for everyone involved\r\n\r\n\r\nEncode:\r\n\r\nFixed brightness,contrast,rgb and added sharpness.\r\nnoticed 3 scenes were missing so i took the spots from the latino version and inserted them when needed\r\ntook me 3 more hours but Video is now complete.\r\n\r\nAudio was a nice line, sounds perfect,lipsynced it to my video\r\n\r\n\r\nwont get better than this till retail\r\nenjoy\r\n\r\nVideo: 720x304 @bitrate 1800 2pass\r\nAudio: Line AC3 2.0 Stereo\r\nSample: yes included\r\n\r\n\r\n \nhttp://www.imdb.com/title/tt3410834/\r\n\r\n\r\nGeneral\r\nGeneral\r\nComplete name                  : Divergent.Series.Allegiant.2016.HD-TS.XVID.AC3.HQ.Hive-CM8.avi\r\nFormat                         : AVI\r\nFormat/Info                    : Audio Video Interleave\r\nFile size                      : 1.58 GiB\r\nDuration                       : 1h 49mn\r\nOverall bit rate               : 2 067 Kbps\r\nWriting application            : Nandub v1.0rc2\r\nWriting library                : Nandub build 1853/release\r\n\r\nVideo\r\nID                             : 0\r\nFormat                         : MPEG-4 Visual\r\nFormat profile                 : Advanced   \r\nFormat settings, BVOP          : 2\r\nFormat settings, QPel          : Yes\r\nFormat settings, GMC           : No warppoints\r\nFormat settings, Matrix        : Default (H.263)\r\nMuxing mode                    : Packed bitstream\r\nCodec ID                       : XVID\r\nCodec ID/Hint                  : XviD\r\nDuration                       : 1h 49mn\r\nBit rate                       : 1 800 Kbps\r\nWidth                          : 720 pixels\r\nHeight                         : 304 pixels\r\nDisplay aspect ratio           : 2.35:1\r\nFrame rate                     : 29.970 fps\r\nColor space                    : YUV\r\nChroma subsampling             : 4:2:0\r\nBit depth                      : 8 bits\r\nScan type                      : Progressive\r\nCompression mode               : Lossy\r\nBits/(Pixel*Frame)             : 0.274\r\nStream size                    : 1.37 GiB (87%)\r\nWriting library                : XviD 1.2.1 (UTC 2008-12-04)\r\n\r\nAudio\r\nID                             : 1\r\nFormat                         : AC-3\r\nFormat/Info                    : Audio Coding 3\r\nMode extension                 : CM (complete main)\r\nFormat settings, Endianness    : Big\r\nCodec ID                       : 2000\r\nDuration                       : 1h 49mn\r\nBit rate mode                  : Constant\r\nBit rate                       : 256 Kbps\r\nChannel(s)                     : 2 channels\r\nChannel positions              : Front: L R\r\nSampling rate                  : 48.0 KHz\r\nBit depth                      : 16 bits\r\nCompression mode               : Lossy\r\nStream size                    : 200 MiB (12%)\r\nAlignment                      : Split accross interleaves\r\nInterleave, duration           : 33 ms (1.00 video frame)\r\nInterleave, preload duration   : 500 ms\r\n\r\n\r\n\r\n\r\nScreens \r\n \nhttp://boltimg.com/image/RYYw \nhttp://boltimg.com/image/RfSL \nhttp://boltimg.com/image/R2zp \nhttp://boltimg.com/image/RarC \nhttp://boltimg.com/image/RbgG \nhttp://boltimg.com/image/RopF\r\n\r\n\r\n\r\nPlot\r\n\r\nAfter the earth-shattering revelations of Insurgent, Tris must escape with Four beyond the wall that encircles Chicago, to finally discover the shocking truth of the world around them.\r\n\r\n\r\n\r\nCast\r\n\r\nCast overview, first billed only:\r\nShailene Woodley  ...  Tris  \r\nTheo James\t ...  Four  \r\nNaomi Watts\t ...  Evelyn  \r\nOctavia Spencer\t ...  Johanna  \r\nJeff Daniels\t ...  David  \r\nZoë Kravitz  ...  Christina  \r\nAnsel Elgort\t ...  Caleb  \r\nMiles Teller  ...  Peter  \r\nKeiynan Lonsdale  ...  Uriah  \r\nDaniel Dae Kim    ...  Jack Kang  \r\nMaggie Q\t ...  Tori  \r\nBill Skarsgård    ...  Matthew  \r\nJonny Weston  ...  Edgar  \r\nNadia Hilker  ...  Nita  \r\nAndy Bean  ...  Romit","torrent":{"xt":"urn:btih:8f8d8ec97e89117381d6cd3f117fa16b40babdd4","amp;dn":"Divergent.Series.Allegiant.2016.HD-TS.XVID.AC3.HQ.Hive-CM8","amp;tr":["udp%3A%2F%2Ftracker.leechers-paradise.org%3A6969","udp%3A%2F%2Fzer0day.ch%3A1337","udp%3A%2F%2Fopen.demonii.com%3A1337","udp%3A%2F%2Ftracker.coppersurfer.tk%3A6969","udp%3A%2F%2Fexodus.desync.com%3A6969"],"infoHash":"8f8d8ec97e89117381d6cd3f117fa16b40babdd4","infoHashBuffer":{"type":"Buffer","data":[143,141,142,201,126,137,17,115,129,214,205,63,17,127,161,107,64,186,189,212]},"announce":[],"urlList":[]}}